<svg width="70" height="70" viewBox="0 0 70 70" fill="none" xmlns="http://www.w3.org/2000/svg">
<path d="M9.84375 44.8438C9.19478 44.8438 8.56039 45.0362 8.02079 45.3967C7.48119 45.7573 7.06062 46.2698 6.81227 46.8693C6.56392 47.4689 6.49894 48.1286 6.62555 48.7651C6.75216 49.4016 7.06467 49.9863 7.52356 50.4452C7.98245 50.9041 8.56711 51.2166 9.20361 51.3432C9.84011 51.4698 10.4999 51.4048 11.0994 51.1565C11.699 50.9081 12.2115 50.4876 12.572 49.948C12.9326 49.4084 13.125 48.774 13.125 48.125C13.124 47.2551 12.778 46.421 12.1629 45.8059C11.5477 45.1907 10.7137 44.8447 9.84375 44.8438ZM9.84375 49.2188C9.62743 49.2188 9.41596 49.1546 9.2361 49.0344C9.05623 48.9142 8.91604 48.7434 8.83326 48.5436C8.75047 48.3437 8.72881 48.1238 8.77102 47.9116C8.81322 47.6995 8.91739 47.5046 9.07035 47.3516C9.22332 47.1986 9.4182 47.0945 9.63037 47.0523C9.84254 47.0101 10.0625 47.0317 10.2623 47.1145C10.4622 47.1973 10.633 47.3375 10.7532 47.5173C10.8734 47.6972 10.9375 47.9087 10.9375 48.125C10.9372 48.415 10.8218 48.693 10.6168 48.898C10.4117 49.1031 10.1337 49.2184 9.84375 49.2188Z" fill="#EBEBEB"/>
<path d="M51.4063 44.8438C50.7573 44.8438 50.1229 45.0362 49.5833 45.3967C49.0437 45.7573 48.6231 46.2698 48.3748 46.8693C48.1264 47.4689 48.0614 48.1286 48.188 48.7651C48.3147 49.4016 48.6272 49.9863 49.0861 50.4452C49.5449 50.9041 50.1296 51.2166 50.7661 51.3432C51.4026 51.4698 52.0624 51.4048 52.6619 51.1565C53.2615 50.9081 53.774 50.4876 54.1345 49.948C54.4951 49.4084 54.6875 48.774 54.6875 48.125C54.6865 47.2551 54.3405 46.421 53.7254 45.8059C53.1102 45.1907 52.2762 44.8447 51.4063 44.8438ZM51.4063 49.2188C51.1899 49.2188 50.9785 49.1546 50.7986 49.0344C50.6187 48.9142 50.4785 48.7434 50.3958 48.5436C50.313 48.3437 50.2913 48.1238 50.3335 47.9116C50.3757 47.6995 50.4799 47.5046 50.6329 47.3516C50.7858 47.1986 50.9807 47.0945 51.1929 47.0523C51.405 47.0101 51.625 47.0317 51.8248 47.1145C52.0247 47.1973 52.1955 47.3375 52.3157 47.5173C52.4359 47.6972 52.5 47.9087 52.5 48.125C52.4997 48.415 52.3843 48.693 52.1793 48.898C51.9742 49.1031 51.6962 49.2184 51.4063 49.2188Z" fill="#EBEBEB"/>
<path d="M59.0625 48.125C59.0625 47.1086 58.8601 46.1024 58.4672 45.165C58.0742 44.2276 57.4985 43.3778 56.7737 42.6653C56.0489 41.9527 55.1895 41.3916 54.2456 41.0147C53.3016 40.6377 52.2921 40.4525 51.2758 40.4698C47.1261 40.5392 43.75 44.0217 43.75 48.233V51.9073C40.7538 51.0918 36.384 50.3125 30.625 50.3125C24.866 50.3125 20.4962 51.0918 17.5 51.9073V48.125C17.5 47.0945 17.292 46.0747 16.8884 45.1265C16.4849 44.1784 15.8941 43.3215 15.1514 42.6071C14.4088 41.8927 13.5296 41.3357 12.5665 40.9692C11.6034 40.6028 10.5762 40.4345 9.54652 40.4745C7.62231 40.5556 5.79872 41.3563 4.4369 42.7182C3.07507 44.08 2.27432 45.9036 2.19324 47.8278C2.12024 49.7187 2.74973 51.5697 3.96039 53.0241C5.17105 54.4785 6.87719 55.4333 8.75 55.7045V60.1562C8.7513 61.3162 9.21265 62.4282 10.0328 63.2484C10.853 64.0686 11.9651 64.5299 13.125 64.5312V67.8125C13.125 68.1026 13.2402 68.3808 13.4453 68.5859C13.6505 68.791 13.9287 68.9062 14.2187 68.9062H17.5C17.7031 68.9062 17.9022 68.8497 18.075 68.7429C18.2477 68.6361 18.3874 68.4833 18.4782 68.3017L20.3634 64.5312H40.8866L42.7718 68.3017C42.8626 68.4833 43.0022 68.6361 43.175 68.7429C43.3478 68.8497 43.5469 68.9062 43.75 68.9062H47.0312C47.3213 68.9062 47.5995 68.791 47.8046 68.5859C48.0098 68.3808 48.125 68.1026 48.125 67.8125V64.5312C49.2849 64.5299 50.397 64.0686 51.2171 63.2484C52.0373 62.4282 52.4987 61.3162 52.5 60.1562V55.7033C54.3213 55.438 55.9863 54.5264 57.1912 53.1351C58.396 51.7438 59.0602 49.9655 59.0625 48.125ZM16.8241 66.7188H15.3125V64.5312H17.9178L16.8241 66.7188ZM45.9375 66.7188H44.4259L43.3322 64.5312H45.9375V66.7188ZM51.4062 53.5938C51.1162 53.5938 50.838 53.709 50.6328 53.9141C50.4277 54.1192 50.3125 54.3974 50.3125 54.6875V60.1562C50.3118 60.7362 50.0811 61.2922 49.671 61.7023C49.2609 62.1124 48.7049 62.3431 48.125 62.3438H13.125C12.545 62.3431 11.989 62.1124 11.579 61.7023C11.1689 61.2922 10.9382 60.7362 10.9375 60.1562V54.6875C10.9375 54.3974 10.8223 54.1192 10.6171 53.9141C10.412 53.709 10.1338 53.5938 9.84375 53.5938C9.10755 53.5938 8.37893 53.4451 7.70155 53.1568C7.02418 52.8684 6.41201 52.4462 5.90173 51.9156C5.39144 51.3849 4.99356 50.7567 4.73192 50.0685C4.47028 49.3804 4.35027 48.6465 4.3791 47.9109C4.43705 46.5371 5.00878 45.2352 5.98107 44.2629C6.95335 43.2906 8.2553 42.7189 9.6291 42.6609C10.3647 42.632 11.0986 42.7519 11.7868 43.0135C12.475 43.2751 13.1032 43.6729 13.6339 44.1831C14.1646 44.6934 14.5869 45.3055 14.8753 45.9828C15.1637 46.6602 15.3124 47.3888 15.3125 48.125V52.582C13.5883 53.1836 12.6823 53.6815 12.5888 53.7342L13.6589 55.6421C13.7153 55.6106 19.4404 52.5 30.625 52.5C41.8095 52.5 47.5346 55.6106 47.5888 55.6408L48.6612 53.7342C48.5677 53.6815 47.6617 53.183 45.9375 52.582V48.233C45.9375 45.208 48.3487 42.7066 51.3123 42.6571C52.0344 42.6446 52.7518 42.7752 53.4231 43.0414C54.0944 43.3077 54.7064 43.7042 55.2236 44.2082C55.7408 44.7122 56.1531 45.3137 56.4367 45.9779C56.7202 46.6421 56.8694 47.3559 56.8756 48.078C56.8818 48.8002 56.7449 49.5164 56.4728 50.1854C56.2007 50.8544 55.7988 51.4628 55.2903 51.9756C54.7818 52.4884 54.1768 52.8955 53.5101 53.1732C52.8435 53.4509 52.1284 53.5939 51.4062 53.5938Z" fill="#EBEBEB"/>
<path d="M10.9375 32.8125C10.9382 32.2325 11.1689 31.6766 11.579 31.2665C11.9891 30.8564 12.545 30.6257 13.125 30.625H48.125C48.7049 30.6257 49.261 30.8564 49.671 31.2665C50.0811 31.6766 50.3118 32.2325 50.3125 32.8125V38.2812H52.5V32.8125C52.4987 31.6526 52.0373 30.5405 51.2172 29.7203C50.397 28.9002 49.2849 28.4388 48.125 28.4375H13.125C11.9651 28.4388 10.853 28.9002 10.0328 29.7203C9.21266 30.5405 8.7513 31.6526 8.75 32.8125V38.2812H10.9375V32.8125Z" fill="#EBEBEB"/>
<path d="M24.0625 35H26.25V37.1875H24.0625V35Z" fill="#EBEBEB"/>
<path d="M29.5312 40.4688H31.7188V42.6562H29.5312V40.4688Z" fill="#EBEBEB"/>
<path d="M18.5938 40.4688H20.7812V42.6562H18.5938V40.4688Z" fill="#EBEBEB"/>
<path d="M24.0625 45.9375H26.25V48.125H24.0625V45.9375Z" fill="#EBEBEB"/>
<path d="M35 35H37.1875V37.1875H35V35Z" fill="#EBEBEB"/>
<path d="M40.4688 40.4688H42.6562V42.6562H40.4688V40.4688Z" fill="#EBEBEB"/>
<path d="M35 45.9375H37.1875V48.125H35V45.9375Z" fill="#EBEBEB"/>
<path d="M63.4375 1.09375H32.8125C31.6526 1.09505 30.5405 1.55641 29.7203 2.3766C28.9002 3.19679 28.4388 4.30883 28.4375 5.46875V6.5625H30.625V5.46875C30.6257 4.8888 30.8564 4.3328 31.2665 3.92271C31.6766 3.51263 32.2325 3.28194 32.8125 3.28125H47.0312V26.25H49.2188V3.28125H63.4375C64.0174 3.28194 64.5735 3.51263 64.9835 3.92271C65.3936 4.3328 65.6243 4.8888 65.625 5.46875V60.1562C65.6243 60.7362 65.3936 61.2922 64.9835 61.7023C64.5735 62.1124 64.0174 62.3431 63.4375 62.3438H53.5938V64.5312H56.1991L58.0843 68.3017C58.1751 68.4833 58.3147 68.6361 58.4875 68.7429C58.6603 68.8497 58.8594 68.9062 59.0625 68.9062H62.3438C62.6338 68.9062 62.912 68.791 63.1171 68.5859C63.3223 68.3808 63.4375 68.1026 63.4375 67.8125V64.5312C64.5974 64.5299 65.7095 64.0686 66.5297 63.2484C67.3498 62.4282 67.8112 61.3162 67.8125 60.1562V5.46875C67.8112 4.30883 67.3498 3.19679 66.5297 2.3766C65.7095 1.55641 64.5974 1.09505 63.4375 1.09375ZM61.25 66.7188H59.7384L58.6447 64.5312H61.25V66.7188Z" fill="#EBEBEB"/>
<path d="M9.84374 24.0625H19.6875V26.25H21.875V24.0625H31.7187C31.87 24.0625 32.0197 24.0311 32.1582 23.9703C32.2968 23.9095 32.4212 23.8206 32.5236 23.7093C32.626 23.5979 32.7043 23.4666 32.7533 23.3235C32.8024 23.1803 32.8212 23.0286 32.8087 22.8778L31.7149 9.75283C31.6921 9.47945 31.5674 9.22461 31.3655 9.03886C31.1636 8.85311 30.8993 8.75001 30.625 8.75H21.875V6.5625H19.6875V8.75H10.9375C10.6632 8.75001 10.3988 8.85311 10.197 9.03886C9.99508 9.22461 9.87037 9.47945 9.84757 9.75283L8.75382 22.8778C8.74124 23.0286 8.76008 23.1803 8.80914 23.3235C8.85821 23.4666 8.93643 23.5979 9.03887 23.7093C9.1413 23.8206 9.26572 23.9095 9.40426 23.9703C9.5428 24.0311 9.69245 24.0625 9.84374 24.0625ZM11.9439 10.9375H29.6186L30.5301 21.875H11.0324L11.9439 10.9375Z" fill="#EBEBEB"/>
</svg>
